<?xml version="1.0" standalone="no"?>
<!DOCTYPE svg PUBLIC "-//W3C//DTD SVG 20010904//EN"
 "http://www.w3.org/TR/2001/REC-SVG-20010904/DTD/svg10.dtd">
<svg version="1.0" xmlns="http://www.w3.org/2000/svg"
 width="1024.000000pt" height="1024.000000pt" viewBox="0 0 1024.000000 1024.000000"
 preserveAspectRatio="xMidYMid meet">

<g transform="translate(0.000000,1024.000000) scale(0.100000,-0.100000)"
fill="#000000" stroke="none">
<path d="M4817 9103 c-15 -2 -31 -13 -37 -23 -5 -10 -30 -98 -55 -197 -53
-208 -59 -223 -82 -223 -45 0 -303 -75 -447 -130 -88 -33 -165 -60 -172 -60
-6 0 -52 35 -100 78 -157 138 -206 174 -229 170 -27 -6 -565 -368 -572 -385
-3 -8 31 -92 75 -188 l81 -175 -88 -113 c-95 -121 -223 -305 -261 -374 -28
-50 -20 -49 -200 -23 -74 10 -166 20 -204 22 l-69 3 -24 -70 c-13 -38 -60
-185 -104 -325 -76 -241 -79 -255 -62 -267 10 -8 89 -68 177 -135 l159 -122
-7 -80 c-3 -45 -6 -176 -6 -292 l0 -211 -77 -50 c-43 -27 -119 -76 -170 -107
-51 -31 -95 -61 -98 -66 -13 -21 178 -638 203 -657 11 -10 74 -13 228 -13
l213 0 28 -40 c15 -22 33 -40 38 -40 11 0 24 21 103 170 30 58 65 120 78 138
l22 34 -45 95 c-146 314 -202 786 -138 1166 70 413 283 817 590 1122 263 260
603 455 948 545 184 47 311 62 527 63 208 1 319 -10 492 -49 59 -13 117 -24
131 -24 21 0 552 182 563 193 14 13 -316 119 -517 166 l-136 32 -52 215 c-40
162 -57 217 -71 224 -18 10 -572 12 -633 3z"/>
<path d="M6793 8666 c-87 -21 -163 -66 -243 -142 l-77 -73 -384 -137 c-631
-223 -843 -296 -859 -296 -8 0 -49 13 -90 27 -62 22 -92 27 -175 27 -172 0
-303 -58 -426 -190 -59 -63 -80 -97 -160 -260 -51 -103 -363 -729 -693 -1392
-528 -1058 -965 -1938 -974 -1960 -2 -4 21 -15 50 -25 85 -28 173 -83 333
-210 171 -135 427 -308 475 -320 22 -5 45 15 197 165 l171 171 94 -39 c126
-54 233 -90 358 -122 l105 -26 11 -45 c7 -24 28 -116 49 -204 20 -88 40 -170
45 -183 l10 -22 349 0 c264 0 352 3 357 12 4 7 29 104 54 217 29 131 51 207
61 212 7 4 70 24 139 44 69 20 172 55 230 77 58 22 112 42 121 45 10 3 75 -52
188 -162 151 -145 176 -166 198 -160 52 13 310 181 443 289 150 122 380 317
380 323 0 10 -1235 2464 -1420 2821 -94 183 -170 335 -168 338 3 2 219 83 481
180 l476 177 53 -48 c59 -53 145 -99 219 -119 50 -12 52 -15 76 -72 72 -172
141 -332 232 -538 l101 -228 -20 -29 c-12 -15 -33 -54 -47 -86 -24 -52 -27
-70 -28 -173 0 -114 1 -117 37 -191 36 -72 103 -148 167 -190 l24 -15 -10
-130 c-5 -71 -8 -130 -7 -132 4 -6 406 -54 409 -50 1 2 8 59 14 127 6 68 14
127 16 132 3 4 25 18 49 29 148 75 247 236 249 410 2 148 -49 268 -158 373
-50 48 -153 107 -185 107 -10 0 -22 6 -27 13 -6 6 -59 127 -118 267 -59 140
-134 320 -167 399 -40 93 -58 148 -52 156 78 101 104 171 111 300 9 158 -35
276 -146 386 -132 131 -324 187 -498 145z m233 -256 c57 -25 111 -75 142 -134
38 -73 38 -179 0 -251 -90 -172 -297 -212 -440 -86 -86 75 -115 223 -66 328
66 140 225 203 364 143z m-2055 -661 c54 -27 103 -91 128 -164 33 -102 27
-106 -43 -29 -72 79 -157 130 -264 160 -63 18 -63 18 -37 31 64 34 151 34 216
2z m52 -1004 c104 -220 313 -657 358 -748 16 -33 27 -63 24 -68 -7 -10 -988
-12 -983 -2 2 5 15 33 30 63 14 30 102 215 195 410 93 195 191 401 218 458 27
56 52 99 56 95 4 -5 50 -98 102 -208z m2606 29 c66 -19 127 -73 157 -139 95
-203 -126 -418 -331 -321 -211 99 -182 398 45 467 40 12 72 10 129 -7z m-1829
-1666 c35 -73 114 -235 176 -360 l113 -226 -92 -60 c-114 -74 -204 -119 -327
-165 -263 -98 -560 -140 -834 -118 -267 22 -488 79 -701 180 -133 64 -345 196
-345 216 0 7 72 159 160 339 l159 326 814 0 813 0 64 -132z"/>
<path d="M6844 8311 c-136 -62 -134 -270 3 -327 116 -49 247 36 247 160 0 138
-127 223 -250 167z"/>
<path d="M7492 6673 c-74 -36 -106 -147 -63 -217 30 -48 98 -80 151 -71 144
24 178 217 50 283 -52 26 -93 28 -138 5z"/>
<path d="M7140 5659 l-152 -121 6 -67 c4 -36 24 -160 44 -274 34 -194 39 -209
62 -222 27 -15 132 -65 137 -65 1 0 4 115 5 256 l3 255 109 44 c60 24 114 41
120 38 6 -3 45 -31 86 -62 41 -30 76 -56 78 -57 2 -1 -85 -253 -137 -393 -18
-46 -30 -85 -28 -88 2 -2 45 3 96 10 68 10 95 19 106 33 7 10 64 119 126 241
l112 221 -80 124 c-44 67 -88 138 -97 156 -9 18 -27 37 -39 42 -16 7 -362 50
-399 50 -3 0 -74 -54 -158 -121z"/>
<path d="M4546 2774 c-178 -43 -324 -187 -380 -374 -22 -72 -22 -235 -1 -314
45 -169 174 -301 350 -356 134 -42 318 -27 439 37 70 38 187 157 219 224 103
219 66 475 -94 637 -134 135 -342 192 -533 146z m231 -219 c66 -20 135 -81
170 -153 25 -51 28 -68 28 -157 0 -125 -23 -183 -97 -250 -165 -148 -406 -68
-463 152 -20 78 -19 139 6 218 22 71 77 143 131 171 66 34 150 41 225 19z"/>
<path d="M5638 2774 c-118 -28 -219 -105 -258 -196 -19 -44 -22 -65 -18 -135
4 -72 8 -89 34 -125 59 -84 93 -102 357 -183 106 -33 147 -66 147 -118 0 -79
-65 -113 -199 -104 -107 7 -174 27 -242 73 -29 19 -55 31 -59 27 -20 -23 -82
-174 -77 -187 9 -23 133 -81 212 -99 104 -24 182 -29 262 -18 149 22 254 84
308 182 27 49 30 63 30 144 0 73 -4 98 -22 130 -46 87 -135 141 -313 191 -112
32 -163 55 -184 86 -48 68 28 138 149 138 60 0 159 -26 218 -57 28 -16 55 -29
58 -31 3 -1 25 38 48 88 51 106 50 110 -47 153 -119 53 -286 70 -404 41z"/>
<path d="M6632 2770 c-101 -27 -167 -64 -237 -135 -105 -106 -155 -230 -155
-385 0 -165 50 -292 154 -395 100 -100 227 -149 381 -148 160 0 280 48 386
154 127 126 180 302 149 493 -11 71 -68 194 -115 252 -45 54 -155 129 -230
155 -88 31 -238 35 -333 9z m275 -233 c197 -101 218 -424 35 -564 -125 -95
-311 -59 -397 77 -60 94 -70 244 -25 347 23 52 79 116 122 139 77 40 186 41
265 1z"/>
<path d="M1457 2618 c-223 -609 -307 -837 -316 -860 l-11 -28 129 0 129 0 35
103 34 102 199 0 199 -1 35 -102 35 -102 128 0 c119 0 129 1 122 18 -3 9 -62
170 -130 357 -68 187 -150 412 -183 500 l-58 160 -146 3 -145 3 -56 -153z
m271 -286 l68 -202 -139 0 c-107 0 -138 3 -134 13 3 6 34 98 69 203 34 106 64
191 65 189 2 -1 34 -92 71 -203z"/>
<path d="M2232 2393 c3 -367 4 -380 26 -435 74 -184 280 -285 505 -249 150 25
254 93 314 208 49 92 53 133 53 508 l0 345 -120 0 -120 0 0 -341 c0 -375 -3
-398 -57 -454 -81 -83 -255 -71 -317 22 -40 60 -46 122 -46 459 l0 314 -121 0
-120 0 3 -377z"/>
<path d="M3247 2763 c-4 -3 -7 -53 -7 -110 l0 -103 155 0 155 0 0 -410 0 -410
125 0 125 0 0 410 0 410 155 0 155 0 0 110 0 110 -428 0 c-236 0 -432 -3 -435
-7z"/>
<path d="M7480 2250 l0 -520 120 0 120 0 0 195 0 195 215 0 215 0 0 105 0 105
-215 0 -215 0 0 110 0 110 244 0 245 0 3 106 c2 58 1 108 -1 110 -2 2 -168 4
-368 4 l-363 0 0 -520z"/>
<path d="M8300 2660 l0 -110 150 0 150 0 0 -410 0 -410 125 0 125 0 0 410 0
410 150 0 150 0 0 110 0 110 -425 0 -425 0 0 -110z"/>
</g>
</svg>
